<svg width="24" height="24" viewBox="0 0 24 24" fill="none" xmlns="http://www.w3.org/2000/svg">
<path d="M14.5 13.5C14.7762 13.2239 15.2239 13.2239 15.5 13.5C15.7762 13.7761 15.7762 14.2238 15.5 14.5L12.7071 17.2929C12.3165 17.6834 11.6835 17.6834 11.293 17.2929L8.50004 14.5C8.22397 14.2238 8.22392 13.7761 8.50004 13.5C8.77616 13.2239 9.22389 13.2239 9.50004 13.5L12 16L14.5 13.5ZM14.5 7.49998C14.7762 7.22386 15.2239 7.22391 15.5 7.49998C15.7762 7.77612 15.7762 8.22383 15.5 8.49998L12.7071 11.2929C12.3165 11.6834 11.6835 11.6834 11.293 11.2929L8.50004 8.49998C8.22397 8.22383 8.22392 7.77609 8.50004 7.49998C8.77616 7.22386 9.22389 7.22391 9.50004 7.49998L12 9.99998L14.5 7.49998Z" fill="#41F6D7"/>
</svg>
